<?xml version="1.0" encoding="utf-8"?>
<!-- Generator: Adobe Illustrator 19.0.0, SVG Export Plug-In . SVG Version: 6.00 Build 0)  -->
<svg version="1.1" id="Layer_1" xmlns="http://www.w3.org/2000/svg" xmlns:xlink="http://www.w3.org/1999/xlink" x="0px" y="0px"
	 viewBox="0 0 27.2 26.9" style="enable-background:new 0 0 27.2 26.9;" xml:space="preserve">
<style type="text/css">
	.st0{fill:#27B294;}
</style>
<g id="XMLID_28_">
	<g id="XMLID_31_">
		<path id="XMLID_32_" class="st0" d="M1.2,26.9c-0.3,0-0.6-0.1-0.9-0.4c-0.5-0.5-0.4-1.3,0.1-1.7L21.8,5C22.3,4.5,23,4.5,23.5,5
			c0.5,0.5,0.4,1.3-0.1,1.7L2,26.5C1.8,26.8,1.5,26.9,1.2,26.9z"/>
	</g>
	<g id="XMLID_29_">
		<path id="XMLID_30_" class="st0" d="M25,20.3C25,20.3,25,20.3,25,20.3C21,12.7,15.9,7.6,9.8,3.7C9.5,3.5,9.3,3.2,9.2,2.8
			c-0.1-0.3,0-0.7,0.3-1l1.2-1.5c0.4-0.5,0.9-0.6,1.5-0.2C19.3,4.8,25,11.5,27,19.5c0,0,0,0,0,0c0,0.1,0.3,1.3-0.6,1.5
			C25.8,21.3,25.1,20.7,25,20.3z"/>
	</g>
</g>
</svg>
