<?xml version="1.0" encoding="utf-8"?>
<!-- Generator: Adobe Illustrator 19.0.0, SVG Export Plug-In . SVG Version: 6.00 Build 0)  -->
<svg version="1.1" id="Layer_1" xmlns="http://www.w3.org/2000/svg" xmlns:xlink="http://www.w3.org/1999/xlink" x="0px" y="0px"
	 viewBox="0 0 15 15" style="enable-background:new 0 0 15 15;" xml:space="preserve">
<style type="text/css">
	.st0{fill:#3F3F3F;}
</style>
<g id="XMLID_1246_">
	<g id="XMLID_1266_">
		<circle id="XMLID_1267_" class="st0" cx="7.4" cy="7.5" r="3.5"/>
	</g>
	<g id="XMLID_1264_">
		<path id="XMLID_1265_" class="st0" d="M10,5.3c-0.3,0-0.5,0-0.8-0.1C9,5.2,8.9,4.9,8.9,4.7C9,4.5,9.2,4.3,9.4,4.4
			c0.9,0.2,1.9-0.1,2.5-0.9c0.2-0.3,0.3-0.5,0.4-0.8c0.1-0.2,0.3-0.4,0.5-0.3c0.2,0.1,0.4,0.3,0.3,0.5C13,3.3,12.8,3.7,12.6,4
			C12,4.9,11,5.3,10,5.3z"/>
	</g>
	<g id="XMLID_1262_">
		<path id="XMLID_1263_" class="st0" d="M11.5,6.9c-0.6,0-1.2-0.2-1.8-0.5C9.5,6.3,9.4,6,9.6,5.8c0.1-0.2,0.4-0.3,0.6-0.1
			C10.7,6,11.3,6.2,11.9,6c0.6-0.1,1.2-0.5,1.5-1c0.1-0.2,0.4-0.3,0.6-0.1c0.2,0.1,0.3,0.4,0.1,0.6c-0.5,0.7-1.2,1.2-2,1.4
			C11.9,6.9,11.7,6.9,11.5,6.9z"/>
	</g>
	<g id="XMLID_1260_">
		<path id="XMLID_1261_" class="st0" d="M11.6,12.3C11.6,12.3,11.6,12.3,11.6,12.3c-0.2,0-0.5-0.3-0.4-0.5c0-0.6-0.2-1.1-0.6-1.6
			c-0.4-0.5-1-0.7-1.6-0.7C8.7,9.5,8.6,9.3,8.6,9c0-0.2,0.2-0.4,0.5-0.4c0.9,0,1.6,0.4,2.2,1.1c0.6,0.6,0.9,1.2,0.8,2.1
			C12,12.1,11.9,12.3,11.6,12.3z"/>
	</g>
	<g id="XMLID_1258_">
		<path id="XMLID_1259_" class="st0" d="M13.8,10.5c-0.2,0-0.4-0.1-0.4-0.3c-0.2-0.6-0.6-1.1-1.1-1.4c-0.6-0.3-1.2-0.4-1.8-0.2
			C10.3,8.6,10,8.5,10,8.3C9.9,8.1,10,7.8,10.2,7.8c0.8-0.2,1.7-0.1,2.4,0.3c0.8,0.4,1.3,1.1,1.5,1.9c0.1,0.2-0.1,0.5-0.3,0.5
			C13.9,10.5,13.9,10.5,13.8,10.5z"/>
	</g>
	<g id="XMLID_1256_">
		<path id="XMLID_1257_" class="st0" d="M5.1,5.5c-1.4,0-2.8-1-3.1-2.4C2,2.9,2.1,2.6,2.3,2.6c0.2-0.1,0.5,0.1,0.5,0.3
			c0.3,1.3,1.6,2,2.9,1.7c0.2-0.1,0.5,0.1,0.5,0.3c0.1,0.2-0.1,0.5-0.3,0.5C5.7,5.5,5.4,5.5,5.1,5.5z"/>
	</g>
	<g id="XMLID_1254_">
		<path id="XMLID_1255_" class="st0" d="M3.4,6.9c-0.2,0-0.4,0-0.6-0.1c-0.8-0.2-1.6-0.7-2-1.4C0.6,5.3,0.6,5,0.8,4.9
			C1,4.8,1.3,4.8,1.4,5c0.3,0.5,0.9,0.9,1.5,1c0.6,0.1,1.2,0,1.8-0.3c0.2-0.1,0.5-0.1,0.6,0.1C5.4,6,5.4,6.3,5.2,6.4
			C4.6,6.8,4,6.9,3.4,6.9z"/>
	</g>
	<g id="XMLID_1252_">
		<path id="XMLID_1253_" class="st0" d="M3,12.3c-0.2,0-0.4-0.1-0.5-0.4c0-0.9,0.2-1.5,0.8-2.2s1.4-0.9,2.2-1C5.8,8.8,6,9,6,9.2
			c0,0.2-0.2,0.5-0.4,0.5C5,9.8,4.4,10,4,10.5c-0.4,0.5-0.6,0.7-0.6,1.4C3.4,12.1,3.2,12.3,3,12.3C3,12.3,3,12.3,3,12.3z"/>
	</g>
	<g id="XMLID_1250_">
		<path id="XMLID_1251_" class="st0" d="M0.8,10.6c-0.2-0.1-0.3-0.4-0.2-0.6c0.5-1.7,2.3-2.7,4-2.2c0.2,0.1,0.4,0.3,0.3,0.5
			C4.8,8.5,4.6,8.6,4.3,8.6c-1.3-0.4-2.6,0.4-2.9,1.6C1.3,10.4,1.1,10.6,0.8,10.6z"/>
	</g>
	<g id="XMLID_1247_">
		<path id="XMLID_1248_" class="st0" d="M9.6,4.2c0,1.2-1,2.2-2.2,2.2s-2.2-1-2.2-2.2s1-2.2,2.2-2.2S9.6,2.9,9.6,4.2z"/>
	</g>
</g>
</svg>
