<?xml version="1.0" encoding="utf-8"?>
<!-- Generator: Adobe Illustrator 19.0.0, SVG Export Plug-In . SVG Version: 6.00 Build 0)  -->
<svg version="1.1" id="Layer_1" xmlns="http://www.w3.org/2000/svg" xmlns:xlink="http://www.w3.org/1999/xlink" x="0px" y="0px"
	 viewBox="0 0 148.9 28.4" style="enable-background:new 0 0 148.9 28.4;" xml:space="preserve">
<style type="text/css">
	.st0{fill:#FFFFFF;}
	.st1{fill:none;}
	.st2{font-family:'Gotham-Medium';}
	.st3{font-size:12px;}
</style>
<g id="XMLID_1246_">
	<g id="XMLID_1266_">
		<circle id="XMLID_1267_" class="st0" cx="14.9" cy="15.3" r="6.1"/>
	</g>
	<g id="XMLID_1264_">
		<path id="XMLID_1265_" class="st0" d="M19.4,11.5c-0.4,0-0.9-0.1-1.4-0.2c-0.4-0.1-0.6-0.5-0.5-0.9c0.1-0.4,0.5-0.6,0.9-0.5
			c1.6,0.4,3.2-0.2,4.2-1.5C22.9,8,23.1,7.5,23.3,7c0.1-0.4,0.5-0.6,0.9-0.5c0.4,0.1,0.6,0.5,0.5,0.9c-0.2,0.7-0.5,1.4-0.9,2
			C22.7,10.7,21.1,11.5,19.4,11.5z"/>
	</g>
	<g id="XMLID_1262_">
		<path id="XMLID_1263_" class="st0" d="M21.9,14.3c-1.1,0-2.1-0.3-3-0.9c-0.3-0.2-0.4-0.7-0.2-1c0.2-0.3,0.7-0.4,1-0.2
			c0.9,0.6,2,0.8,3,0.6c1.1-0.2,2-0.8,2.6-1.7c0.2-0.3,0.7-0.4,1-0.2c0.3,0.2,0.4,0.7,0.2,1c-0.8,1.2-2.1,2.1-3.5,2.4
			C22.6,14.3,22.2,14.3,21.9,14.3z"/>
	</g>
	<g id="XMLID_1260_">
		<path id="XMLID_1261_" class="st0" d="M22.2,23.5C22.1,23.5,22.2,23.5,22.2,23.5c-0.4,0-0.8-0.5-0.8-0.9c0.1-1.1-0.3-1.9-1-2.7
			c-0.7-0.8-1.7-1.2-2.8-1.2c-0.4,0-0.7-0.3-0.7-0.7c0-0.4,0.4-0.7,0.8-0.7c1.5,0.1,2.8,0.7,3.8,1.8s1.5,2.1,1.4,3.6
			C22.8,23.1,22.5,23.5,22.2,23.5z"/>
	</g>
	<g id="XMLID_1258_">
		<path id="XMLID_1259_" class="st0" d="M25.9,20.4c-0.3,0-0.6-0.2-0.7-0.5c-0.3-1-1-1.9-1.9-2.4c-0.9-0.5-2-0.6-3.1-0.3
			c-0.4,0.1-0.8-0.1-0.9-0.5c-0.1-0.4,0.1-0.8,0.5-0.9c1.4-0.4,2.9-0.2,4.2,0.5c1.3,0.7,2.2,1.9,2.6,3.3c0.1,0.4-0.1,0.8-0.5,0.9
			C26,20.4,26,20.4,25.9,20.4z"/>
	</g>
	<g id="XMLID_1256_">
		<path id="XMLID_1257_" class="st0" d="M11,11.9c-2.5,0-4.7-1.7-5.3-4.2C5.6,7.3,5.8,7,6.2,6.9C6.6,6.8,7,7,7.1,7.4
			c0.5,2.2,2.7,3.5,4.9,2.9c0.4-0.1,0.8,0.1,0.9,0.5c0.1,0.4-0.1,0.8-0.5,0.9C11.9,11.9,11.5,11.9,11,11.9z"/>
	</g>
	<g id="XMLID_1254_">
		<path id="XMLID_1255_" class="st0" d="M8.1,14.3c-0.4,0-0.7,0-1.1-0.1c-1.4-0.3-2.7-1.1-3.5-2.4c-0.2-0.3-0.1-0.8,0.2-1
			c0.3-0.2,0.8-0.1,1,0.2c0.6,0.9,1.5,1.5,2.6,1.7c1.1,0.2,2.1,0,3-0.6c0.3-0.2,0.8-0.1,1,0.2c0.2,0.3,0.1,0.8-0.2,1
			C10.2,14,9.1,14.3,8.1,14.3z"/>
	</g>
	<g id="XMLID_1252_">
		<path id="XMLID_1253_" class="st0" d="M7.4,23.5c-0.4,0-0.8-0.2-0.8-0.6C6.5,21.4,7,20.3,8,19.2s2.3-1.6,3.8-1.7
			c0.4,0,0.8,0.4,0.8,0.8c0,0.4-0.3,0.8-0.7,0.8c-1.1,0.1-2.1,0.6-2.8,1.4c-0.7,0.8-1.1,1.3-1,2.4C8.1,23.2,7.8,23.5,7.4,23.5
			C7.4,23.5,7.4,23.5,7.4,23.5z"/>
	</g>
	<g id="XMLID_1250_">
		<path id="XMLID_1251_" class="st0" d="M3.6,20.5c-0.4-0.1-0.5-0.7-0.4-1c0.8-2.9,3.9-4.6,6.8-3.8c0.4,0.1,0.6,0.5,0.5,0.9
			c-0.1,0.4-0.5,0.6-0.9,0.5c-2.1-0.6-4.4,0.6-5,2.8C4.5,20.2,4.1,20.6,3.6,20.5z"/>
	</g>
	<g id="XMLID_1247_">
		<path id="XMLID_1248_" class="st0" d="M18.6,9.5c0,2.1-1.7,3.8-3.8,3.8s-3.8-1.7-3.8-3.8s1.7-3.8,3.8-3.8S18.6,7.4,18.6,9.5z"/>
	</g>
</g>
<rect id="XMLID_66_" x="30.7" y="9.5" class="st1" width="150" height="18.9"/>
<text id="XMLID_67_" transform="matrix(1 0 0 1 30.7363 18.2976)" class="st0 st2 st3">CRAWLTRACKER</text>
</svg>
